<svg width="20" height="20" viewBox="0 0 20 20" fill="none" xmlns="http://www.w3.org/2000/svg">
<g id="ic:round-location-on">
<path id="Vector" d="M10.0002 1.6665C6.50016 1.6665 3.3335 4.34984 3.3335 8.49984C3.3335 11.1498 5.37516 14.2665 9.45016 17.8582C9.76683 18.1332 10.2418 18.1332 10.5585 17.8582C14.6252 14.2665 16.6668 11.1498 16.6668 8.49984C16.6668 4.34984 13.5002 1.6665 10.0002 1.6665ZM10.0002 9.99984C9.0835 9.99984 8.3335 9.24984 8.3335 8.33317C8.3335 7.4165 9.0835 6.6665 10.0002 6.6665C10.9168 6.6665 11.6668 7.4165 11.6668 8.33317C11.6668 9.24984 10.9168 9.99984 10.0002 9.99984Z" fill="#757575"/>
</g>
</svg>
