<svg width="20" height="20" viewBox="0 0 20 20" fill="none" xmlns="http://www.w3.org/2000/svg">
<g id="ic:round-saved-search">
<path id="Vector" d="M13.1741 11.8826C14.2023 10.4721 14.6573 8.62488 14.0659 6.65933C13.4471 4.63009 11.7272 3.03763 9.65247 2.61904C8.6864 2.41622 7.68499 2.4576 6.73895 2.73945C5.79291 3.0213 4.93212 3.5347 4.23457 4.23316C3.53701 4.93162 3.02472 5.79307 2.7441 6.73948C2.46347 7.68588 2.42338 8.68734 2.62746 9.65315C3.04605 11.737 4.63851 13.4568 6.66775 14.0665C8.6333 14.658 10.4805 14.203 11.891 13.1748L16.9505 18.2342C17.1206 18.4044 17.3514 18.4999 17.592 18.4999C17.8326 18.4999 18.0634 18.4044 18.2335 18.2342C18.4037 18.0641 18.4993 17.8333 18.4993 17.5927C18.4993 17.3521 18.4037 17.1213 18.2335 16.9512L13.1741 11.8826ZM8.4149 12.5105C6.14907 12.5105 4.32002 10.6814 4.32002 8.41559C4.32002 6.14975 6.14907 4.3207 8.4149 4.3207C10.6807 4.3207 12.5098 6.14975 12.5098 8.41559C12.5098 10.6814 10.6807 12.5105 8.4149 12.5105Z" fill="#757575"/>
</g>
</svg>
