<svg width="32" height="32" viewBox="0 0 32 32" fill="none" xmlns="http://www.w3.org/2000/svg">
<g id="ic:round-more-vert">
<path id="Vector" d="M15.9997 10.6668C17.4663 10.6668 18.6663 9.46683 18.6663 8.00016C18.6663 6.5335 17.4663 5.3335 15.9997 5.3335C14.533 5.3335 13.333 6.5335 13.333 8.00016C13.333 9.46683 14.533 10.6668 15.9997 10.6668ZM15.9997 13.3335C14.533 13.3335 13.333 14.5335 13.333 16.0002C13.333 17.4668 14.533 18.6668 15.9997 18.6668C17.4663 18.6668 18.6663 17.4668 18.6663 16.0002C18.6663 14.5335 17.4663 13.3335 15.9997 13.3335ZM15.9997 21.3335C14.533 21.3335 13.333 22.5335 13.333 24.0002C13.333 25.4668 14.533 26.6668 15.9997 26.6668C17.4663 26.6668 18.6663 25.4668 18.6663 24.0002C18.6663 22.5335 17.4663 21.3335 15.9997 21.3335Z" fill="#1D1B20"/>
</g>
</svg>
