<svg width="24" height="24" viewBox="0 0 24 24" fill="none" xmlns="http://www.w3.org/2000/svg">
    <g id="ic:round-keyboard-arrow-down">
    <path id="Vector" d="M8.12004 9.29001L12 13.17L15.88 9.29001C15.9726 9.19742 16.0825 9.12399 16.2035 9.07388C16.3245 9.02378 16.4541 8.99799 16.585 8.99799C16.716 8.99799 16.8456 9.02378 16.9666 9.07388C17.0875 9.12399 17.1975 9.19742 17.29 9.29001C17.3826 9.38259 17.4561 9.4925 17.5062 9.61346C17.5563 9.73443 17.5821 9.86408 17.5821 9.99501C17.5821 10.1259 17.5563 10.2556 17.5062 10.3765C17.4561 10.4975 17.3826 10.6074 17.29 10.7L12.7 15.29C12.6075 15.3827 12.4976 15.4563 12.3767 15.5064C12.2557 15.5566 12.126 15.5825 11.995 15.5825C11.8641 15.5825 11.7344 15.5566 11.6134 15.5064C11.4924 15.4563 11.3826 15.3827 11.29 15.29L6.70004 10.7C6.60733 10.6075 6.53379 10.4976 6.4836 10.3766C6.43342 10.2557 6.40759 10.126 6.40759 9.99501C6.40759 9.86404 6.43342 9.73436 6.4836 9.61338C6.53379 9.49241 6.60733 9.38252 6.70004 9.29001C7.09004 8.91001 7.73004 8.90001 8.12004 9.29001Z" fill="#1D1B20"/>
    </g>
</svg>
