<svg width="33" height="32" viewBox="0 0 33 32" fill="none" xmlns="http://www.w3.org/2000/svg">
<g id="ic:round-check">
<path id="Vector" d="M12.4995 21.56L7.87288 16.9333C7.62357 16.684 7.28544 16.544 6.93288 16.544C6.58031 16.544 6.24218 16.684 5.99288 16.9333C5.74357 17.1826 5.60352 17.5208 5.60352 17.8733C5.60352 18.0479 5.6379 18.2208 5.70471 18.3821C5.77151 18.5434 5.86943 18.6899 5.99288 18.8133L11.5662 24.3867C12.0862 24.9067 12.9262 24.9067 13.4462 24.3867L27.5529 10.28C27.8022 10.0307 27.9422 9.69258 27.9422 9.34001C27.9422 8.98744 27.8022 8.64932 27.5529 8.40001C27.3036 8.15071 26.9654 8.01065 26.6129 8.01065C26.2603 8.01065 25.9222 8.15071 25.6729 8.40001L12.4995 21.56Z" fill="white"/>
</g>
</svg>
